<?xml version="1.0" encoding="UTF-8"?>
<svg version="1.1" viewBox="0 0 2048 2048" width="1280" height="1280" xmlns="http://www.w3.org/2000/svg">
<path transform="translate(0)" d="m0 0h2048v2048h-2048z" fill="#FEFEFE"/>
<path transform="translate(1331,170)" d="m0 0h28l26 2 26 4 28 7 24 8 23 10 20 10 18 11 17 12 14 11 10 9 8 7 14 14 9 11 12 15 16 24 10 18 13 27 9 25 6 21 5 25 3 23 1 13v33l-2 22-5 30-5 20-10 30-12 27-10 18-11 17-10 14-9 11-12 14-17 17-11 9-12 10-17 12-15 9-18 10-34 18-28 15-23 12-22 12-10 5v2l46 19 38 16 26 11 23 12 19 12 19 14 14 12 16 15 14 15 11 14 10 13 13 21 12 22 11 25 10 30 6 26 4 26 1 11v48l-3 25-4 22-6 23-9 26-9 20-12 23-11 17-10 14-13 16-12 13-18 18-11 9-13 10-21 14-21 12-27 14-14 8-16 8-34 18-23 12-22 12-29 15-19 10-26 14-25 13-22 12-29 15-22 12-29 15-16 9-16 8-28 15-42 22-28 15-34 18-29 15-22 12-27 14-22 12-29 15-22 12-29 15-22 12-33 17-14 7-20 8-24 8-25 6-25 4-25 2h-27l-31-3-32-6-24-7-24-9-16-7-19-10-18-11-17-12-16-13-12-11-19-19-9-11-13-17-10-15-11-19-12-24-10-26-7-24-5-23-4-33v-45l4-33 6-27 6-21 11-28 8-16 10-19 16-24 10-13 9-10 7-8 23-23 14-11 13-10 22-14 26-14 23-12 22-12 33-17 22-12 7-4-5-3-29-12-48-20-28-12-23-12-27-18-14-11-14-12-7-7-6-5-7-8-11-12-13-17-14-21-10-18-12-25-9-24-7-24-5-25-3-23-1-11v-37l3-28 6-31 8-27 10-25 12-25 12-20 12-17 11-14 13-15 17-17 11-9 8-7 15-11 15-10 23-13 29-15 22-12 29-15 22-12 23-12 22-12 31-16 22-12 31-16 22-12 29-15 22-12 27-14 22-12 29-15 22-12 29-15 22-12 25-13 22-12 33-17 22-12 25-13 22-12 31-16 22-12 29-15 22-12 33-17 25-11 28-9 26-6 29-4z" fill="#FEFEFE"/>
<path transform="translate(1331,170)" d="m0 0h28l26 2 26 4 28 7 24 8 23 10 20 10 18 11 17 12 14 11 10 9 8 7 14 14 9 11 12 15 16 24 10 18 13 27 9 25 6 21 5 25 3 23 1 13v33l-2 22-5 30-5 20-10 30-12 27-10 18-11 17-10 14-9 11-12 14-17 17-11 9-12 10-17 12-15 9-18 10-34 18-28 15-23 12-22 12-10 5v2l46 19 38 16 26 11 23 12 19 12 19 14 14 12 16 15 14 15 11 14 10 13 13 21 12 22 11 25 10 30 6 26 4 26 1 11v48l-3 25-4 22-6 23-9 26-9 20-12 23-11 17-10 14-13 16-12 13-18 18-11 9-13 10-21 14-21 12-27 14-14 8-16 8-34 18-23 12-22 12-29 15-19 10-26 14-25 13-22 12-29 15-22 12-29 15-16 9-16 8-28 15-42 22-28 15-34 18-29 15-22 12-27 14-22 12-29 15-22 12-29 15-22 12-33 17-14 7-20 8-24 8-25 6-25 4-25 2h-27l-31-3-32-6-24-7-24-9-16-7-19-10-18-11-17-12-16-13-12-11-19-19-9-11-13-17-10-15-11-19-12-24-10-26-7-24-5-23-4-33v-45l4-33 6-27 6-21 11-28 8-16 10-19 16-24 10-13 9-10 7-8 23-23 14-11 13-10 22-14 26-14 23-12 22-12 33-17 22-12 7-4-5-3-29-12-48-20-28-12-23-12-27-18-14-11-14-12-7-7-6-5-7-8-11-12-13-17-14-21-10-18-12-25-9-24-7-24-5-25-3-23-1-11v-37l3-28 6-31 8-27 10-25 12-25 12-20 12-17 11-14 13-15 17-17 11-9 8-7 15-11 15-10 23-13 29-15 22-12 29-15 22-12 23-12 22-12 31-16 22-12 31-16 22-12 29-15 22-12 27-14 22-12 29-15 22-12 29-15 22-12 25-13 22-12 33-17 22-12 25-13 22-12 31-16 22-12 29-15 22-12 33-17 25-11 28-9 26-6 29-4zm-1 86-25 3-25 6-20 7-20 9-23 12-22 12-29 15-22 12-33 17-22 12-29 15-22 12-29 15-22 12-29 15-19 10-26 14-25 13-22 12-29 15-22 12-29 15-22 12-27 14-19 10-28 15-25 13-22 12-29 15-22 12-27 14-19 10-26 14-21 11-16 10-12 9-10 8-12 11-10 10-9 11-14 19-11 19-9 19-9 25-6 26-3 26v30l3 25 6 26 7 20 8 18 8 15 12 18 10 13 12 13 15 15 14 11 14 10 19 11 24 11 32 13 36 15 81 33v103l-8 5-23 12-22 12-33 17-22 12-25 13-19 10-28 15-19 12-12 9-14 12-16 16-9 11-11 15-9 15-8 15-10 24-7 25-4 21-2 21v22l2 22 5 25 6 20 6 16 8 17 10 17 12 17 11 13 13 14 8 7 12 10 16 11 17 10 21 10 30 10 24 5 17 2h38l23-3 26-6 18-6 24-11 27-14 22-12 27-14 19-10 28-15 23-12 22-12 29-15 22-12 31-16 22-12 33-17 22-12 27-14 22-12 29-15 19-10 26-14 27-14 14-8 16-8 22-12 16-8 26-14 25-13 22-12 29-15 22-12 29-15 22-12 23-12 21-14 14-11 16-15 11-12 12-16 10-15 14-27 9-25 6-22 4-27v-42l-4-27-5-20-7-20-8-18-10-18-8-12-10-13-12-14-13-13-11-9-13-10-16-10-16-9-28-12-32-13-27-11-78-32-2-1-1-38v-67l6-2 27-14 20-11 16-8 28-15 25-13 22-12 27-14 24-14 14-10 13-11 10-9 8-8 9-11 10-13 13-21 11-23 9-25 6-26 3-22v-37l-3-24-6-25-7-21-10-22-8-14-8-12-13-17-11-12-14-14-14-11-16-11-19-11-20-9-24-8-22-5-25-3z" fill="#010101"/>
<path transform="translate(809,803)" d="m0 0 5 2 29 15 19 10 24 13 34 18 25 13 16 9 16 8 22 12 27 14 22 12 31 16 22 12 27 14 22 12 29 15 22 12 27 14 11 6-4 4-34 18-42 22-24 13-34 18-25 13-22 12-29 15-19 10-26 14-23 12-22 12-29 15-22 12-42 22-26 14-4 3-3-1z" fill="#010101"/>
</svg>
